<?xml version="1.0" encoding="UTF-8"?>
<svg width="742px" height="285px" viewBox="0 0 742 285" version="1.1" xmlns="http://www.w3.org/2000/svg" xmlns:xlink="http://www.w3.org/1999/xlink">
    <!-- Generator: Sketch 62 (91390) - https://sketch.com -->
    <title>Group 7</title>
    <desc>Created with Sketch.</desc>
    <g id="Page-1" stroke="none" stroke-width="1" fill="none" fill-rule="evenodd">
        <g id="Artboard" transform="translate(-485.000000, -3037.000000)">
            <g id="Group-7" transform="translate(485.000000, 3037.000000)">
                <rect id="Rectangle" fill="#181A1E" x="0" y="0" width="742" height="285" rx="10"></rect>
                <g id="noun_Skull_3029221" transform="translate(330.000000, 93.000000)" fill="#FFFFFF">
                    <g id="Group">
                        <g id="icon" transform="translate(17.500000, 0.000000)">
                            <g id="Group">
                                <rect id="Rectangle" x="0.120268542" y="39.6649425" width="19.3597826" height="9.77816092" rx="4"></rect>
                                <rect id="Rectangle" x="29.1590793" y="39.6649425" width="19.3476982" height="9.77816092" rx="4"></rect>
                                <rect id="Rectangle" x="0.105882353" y="20.1091954" width="48.4072251" height="9.77816092" rx="4"></rect>
                                <rect id="Rectangle" x="0.120268542" y="0.554022989" width="29.0422634" height="9.77758621" rx="4"></rect>
                                <rect id="Rectangle" x="38.8392583" y="0.554022989" width="9.67960358" height="9.77758621" rx="4"></rect>
                            </g>
                        </g>
                        <path d="M77.7525,84.77125 C75.415,83.92125 72.84625,85.04125 71.85125,87.27875 L51.0775,79.7175 L71.8525,72.15625 C72.8475,74.39375 75.41625,75.515 77.75375,74.66375 C80.19375,73.77625 81.4525,71.07625 80.565,68.635 C80.135,67.4525 79.27625,66.55 78.23,66.03125 C78.69875,64.9625 78.77625,63.71875 78.345,62.535 C77.45625,60.09375 74.7575,58.83625 72.31625,59.72375 C69.98,60.575 68.7325,63.08375 69.4075,65.4375 L40.625,75.9125 L11.84375,65.4375 C12.52,63.08375 11.27125,60.57375 8.93625,59.72375 C6.49375,58.83625 3.795,60.09375 2.90625,62.535 C2.47625,63.71875 2.5525,64.9625 3.0225,66.03125 C1.97625,66.55 1.1175,67.45125 0.68625,68.635 C-0.2025,71.0775 1.05625,73.77625 3.4975,74.66375 C5.83375,75.515 8.4025,74.39375 9.3975,72.15625 L30.1725,79.7175 L9.3975,87.27875 C8.4025,85.04125 5.83375,83.92125 3.4975,84.77125 C1.05625,85.66 -0.2025,88.35875 0.68625,90.8 C1.1175,91.98375 1.97625,92.885 3.0225,93.4025 C2.55375,94.4725 2.47625,95.715 2.90625,96.89875 C3.795,99.34125 6.49375,100.59875 8.93625,99.71125 C11.2725,98.86 12.52,96.35125 11.84375,93.9975 L40.625,83.52125 L69.40625,93.9975 C68.73,96.35125 69.97875,98.86125 72.315,99.71125 C74.75625,100.59875 77.455,99.34125 78.34375,96.89875 C78.775,95.715 78.6975,94.4725 78.22875,93.4025 C79.275,92.885 80.13375,91.98375 80.56375,90.8 C81.45125,88.35875 80.1925,85.66 77.7525,84.77125 Z" id="Path" fill-rule="nonzero"></path>
                    </g>
                </g>
            </g>
        </g>
    </g>
</svg>